<svg width="104" height="104" viewBox="0 0 104 104" fill="none" xmlns="http://www.w3.org/2000/svg">
<circle cx="52" cy="52" r="52" fill="#EE2E2A"/>
<path d="M55.4576 63.3577C54.5329 64.2813 53.3029 64.7896 51.9949 64.7896C50.6869 64.7896 49.4569 64.2813 48.5317 63.3577C48.1383 62.9651 47.5007 62.9651 47.1068 63.3577C46.7134 63.7504 46.7134 64.3868 47.1068 64.78C48.4123 66.0831 50.1479 66.8011 51.9944 66.8011C53.8408 66.8011 55.5765 66.0831 56.882 64.78C57.2753 64.3874 57.2753 63.7509 56.882 63.3582C56.4886 62.9656 55.851 62.9656 55.4576 63.3582V63.3577Z" fill="white"/>
<path d="M47.7208 45.4301L44.6489 45.5879C44.0933 45.6166 43.6662 46.0892 43.6944 46.6437C43.7221 47.1807 44.1669 47.5974 44.6998 47.5974C44.7174 47.5974 44.7345 47.5974 44.7521 47.5959L47.824 47.4381C48.3796 47.4094 48.8067 46.9368 48.7785 46.3823C48.7498 45.8278 48.2768 45.4009 47.7208 45.4296V45.4301Z" fill="white"/>
<path d="M59.328 45.5877L56.2561 45.4298C55.7016 45.4012 55.2271 45.8275 55.1984 46.3825C55.1697 46.9371 55.5973 47.4097 56.1528 47.4383L59.2247 47.5962C59.2423 47.5972 59.26 47.5977 59.2771 47.5977C59.8095 47.5977 60.2547 47.1809 60.2824 46.644C60.3111 46.0894 59.8835 45.6169 59.328 45.5882V45.5877Z" fill="white"/>
<path d="M47.7677 55.8092C48.1335 54.9278 47.7142 53.9173 46.8311 53.5522C45.9481 53.1871 44.9358 53.6056 44.57 54.4871C44.2042 55.3685 44.6236 56.379 45.5066 56.7441C46.3896 57.1092 47.402 56.6906 47.7677 55.8092Z" fill="white"/>
<path d="M59.4984 55.8092C59.8642 54.9278 59.4449 53.9173 58.5618 53.5522C57.6788 53.1871 56.6665 53.6056 56.3007 54.4871C55.9349 55.3685 56.3543 56.379 57.2373 56.7441C58.1203 57.1092 59.1327 56.6906 59.4984 55.8092Z" fill="white"/>
<path d="M50.2886 61.9439H53.7871C54.3436 61.9439 54.7944 61.4939 54.7944 60.9384C54.7944 60.3828 54.3436 59.9329 53.7871 59.9329H50.2886C49.732 59.9329 49.2812 60.3828 49.2812 60.9384C49.2812 61.4939 49.732 61.9439 50.2886 61.9439Z" fill="white"/>
<path d="M78.3899 42.8268C78.9817 41.5644 79.2819 40.2125 79.2819 38.8053C79.2819 36.8391 78.6855 34.9518 77.5573 33.348C76.4935 31.8357 75.0344 30.6774 73.3285 29.9881C72.9563 27.8368 71.8432 25.8686 70.1806 24.4287C68.45 22.9305 66.2338 22.105 63.9406 22.105C62.4946 22.105 61.0571 22.4363 59.7642 23.0657C57.9742 20.5143 55.0786 19 51.9574 19C48.8361 19 45.9406 20.5143 44.151 23.0657C42.8581 22.4363 41.4211 22.105 39.9746 22.105C37.6809 22.105 35.4648 22.93 33.7347 24.4287C32.0716 25.8686 30.959 27.8363 30.5867 29.9881C28.8803 30.6774 27.4212 31.8357 26.358 33.348C25.2297 34.9523 24.6334 36.8391 24.6334 38.8053C24.6334 40.2125 24.9331 41.5644 25.5254 42.8268C23.895 44.5885 23 46.8689 23 49.2751C23 54.5193 27.2741 58.7851 32.5279 58.7851H34.127C34.2489 60.8243 34.7113 62.8046 35.5081 64.6859C36.4147 66.8256 37.7126 68.7476 39.3657 70.3977C40.3226 71.3529 41.3718 72.1884 42.501 72.8993C38.9738 75.6705 36.8091 79.8524 36.6298 84.3741C36.6131 84.7964 36.7718 85.2137 37.0654 85.5189C37.3601 85.8245 37.7726 86 38.1972 86H65.8707C66.2953 86 66.7078 85.8245 67.0024 85.5189C67.2961 85.2137 67.4552 84.7964 67.4381 84.3741C67.2593 79.8795 65.1147 75.7132 61.6197 72.9411C62.7746 72.2211 63.8459 71.372 64.8221 70.3977C66.4751 68.7476 67.773 66.8261 68.6796 64.6859C69.477 62.8046 69.9388 60.8243 70.0607 58.7851H71.3874C76.6411 58.7851 80.9147 54.5188 80.9147 49.2751C80.9147 46.8689 80.0197 44.588 78.3894 42.8268H78.3899ZM51.0266 83.989H38.6691C38.9713 79.9484 41.0978 76.2627 44.4502 73.9632C44.6607 74.0617 44.8728 74.1577 45.0878 74.2482C45.39 74.3759 45.6948 74.4941 46.0015 74.6042C46.2337 77.3633 48.3305 79.6005 51.0266 80.053V83.9885V83.989ZM48.1587 75.2301C49.441 75.5156 50.7556 75.6609 52.0924 75.6609H52.0959C53.3883 75.6609 54.6596 75.5247 55.9016 75.2577C55.3999 76.9153 53.8567 78.1264 52.0344 78.1264C50.2122 78.1264 48.6518 76.9022 48.1592 75.2301H48.1587ZM65.3988 83.989H53.0413V80.0535C55.7233 79.603 57.812 77.3869 58.0623 74.6484C58.4114 74.5257 58.7574 74.3935 59.0999 74.2487C59.2903 74.1683 59.4786 74.0838 59.666 73.9968C62.9892 76.2984 65.0981 79.971 65.3988 83.989ZM68.0808 57.6911C68.0808 61.954 66.4177 65.9614 63.3982 68.9759C60.3787 71.9899 56.3645 73.6499 52.0949 73.6499C47.8248 73.6499 43.8105 71.9894 40.7911 68.9759C37.7716 65.9614 36.1085 61.954 36.1085 57.6911L36.0687 53.8421L39.8804 55.8033C40.2063 58.6001 42.5937 60.778 45.4817 60.778C48.3697 60.778 50.9022 58.4654 51.1072 55.5459H52.9451C53.1501 58.4654 55.5944 60.778 58.5705 60.778C61.5467 60.778 63.8404 58.6051 64.1708 55.8129L68.0813 53.8009V57.6916L68.0808 57.6911ZM41.8563 55.1482C41.8563 53.1533 43.4827 51.5299 45.4812 51.5299C47.4798 51.5299 49.1061 53.1533 49.1061 55.1482C49.1061 57.1431 47.4798 58.7665 45.4812 58.7665C43.4827 58.7665 41.8563 57.1431 41.8563 55.1482ZM54.9451 55.1482C54.9451 53.1533 56.5715 51.5299 58.57 51.5299C60.5686 51.5299 62.1949 53.1533 62.1949 55.1482C62.1949 57.1431 60.5686 58.7665 58.57 58.7665C56.5715 58.7665 54.9451 57.1431 54.9451 55.1482ZM68.0808 51.538L64.0026 53.636C63.3393 51.264 61.1549 49.5189 58.57 49.5189C55.9852 49.5189 53.8638 51.2147 53.1672 53.5344H50.8846C50.188 51.2142 48.0293 49.5189 45.4817 49.5189C42.9342 49.5189 40.717 51.2605 40.0512 53.6284L36.045 51.5671L35.9926 46.5135C39.4971 46.1797 42.5922 44.1335 44.2754 41.0531C46.278 43.2049 49.0683 44.4261 52.0319 44.4261C54.9955 44.4261 57.7863 43.2049 59.7884 41.0531C61.4732 44.137 64.5722 46.1837 68.0808 46.5145V51.538ZM71.3879 56.7746H70.0955V46.1012C70.0955 45.2702 69.4427 44.5834 68.6091 44.5382C65.4486 44.3647 62.6523 42.4744 61.311 39.6047C61.0592 39.0653 60.5343 38.7174 59.941 38.6972C59.4555 38.6807 58.9815 38.8953 58.6738 39.2714C57.0359 41.2698 54.6152 42.4161 52.0314 42.4161C49.4476 42.4161 47.027 41.2698 45.389 39.2714C45.0808 38.8953 44.6073 38.6817 44.1213 38.6972C43.5285 38.7174 43.0037 39.0653 42.7518 39.6047C41.4116 42.4724 38.6172 44.3627 35.4587 44.5382C34.6166 44.585 33.9643 45.2787 33.9729 46.1178L34.0636 54.8767L34.0832 56.7756H32.5274C28.3847 56.7756 25.0142 53.4112 25.0142 49.2766C25.0142 47.3184 25.7661 45.4653 27.1311 44.0591C27.6267 43.5488 27.7461 42.7771 27.4288 42.1396C26.9105 41.0989 26.6476 39.9778 26.6476 38.8063C26.6476 37.2559 27.1175 35.7682 28.0065 34.5043C28.8763 33.2675 30.0806 32.3309 31.4888 31.7955C32.0514 31.5818 32.4564 31.0791 32.547 30.4833C32.813 28.7287 33.7034 27.1184 35.0548 25.9485C36.4192 24.767 38.1664 24.117 39.9746 24.117C41.195 24.117 42.4068 24.4161 43.4786 24.9812C44.2487 25.3874 45.1896 25.1446 45.6681 24.4166C47.0673 22.285 49.4184 21.0125 51.9569 21.0125C54.4954 21.0125 56.847 22.285 58.2462 24.4166C58.7242 25.1451 59.6655 25.3879 60.4356 24.9812C61.5074 24.4156 62.7192 24.117 63.9396 24.117C65.7483 24.117 67.4955 24.7675 68.8595 25.9485C70.2103 27.1184 71.1013 28.7287 71.3672 30.4833C71.4574 31.0791 71.8628 31.5818 72.4254 31.7955C73.8337 32.3304 75.0379 33.267 75.9078 34.5043C76.7968 35.7682 77.2667 37.2559 77.2667 38.8063C77.2667 39.9778 77.0038 41.0989 76.486 42.1396C76.1682 42.7771 76.2881 43.5488 76.7832 44.0591C78.1486 45.4653 78.9001 47.3184 78.9001 49.2766C78.9001 53.4117 75.5295 56.7756 71.3874 56.7756L71.3879 56.7746Z" fill="white"/>
</svg>
